<?xml version="1.0" encoding="utf-8"?>
<!-- Generator: Adobe Illustrator 21.0.0, SVG Export Plug-In . SVG Version: 6.00 Build 0)  -->
<svg version="1.1" id="Layer_1" xmlns="http://www.w3.org/2000/svg" xmlns:xlink="http://www.w3.org/1999/xlink" x="0px" y="0px"
	 viewBox="0 0 2000 1000" style="enable-background:new 0 0 2000 1000;" xml:space="preserve">
<style type="text/css">
	.st0{fill:#FFFFFF;}
</style>
<path class="st0" d="M194.3,321.9c116.4,0,174.6,58.2,174.6,174.6c0,116.4-58.2,174.6-174.6,174.6h-80.6V321.9H194.3z M194.3,402.5
	v188c62.7,0,94-31.3,94-94C288.3,433.8,257,402.5,194.3,402.5z"/>
<path class="st0" d="M602.5,321.9l8.1,80.6H476.3v53.7h107.4v80.6H476.3v53.7h134.3l-8.1,80.6H395.8V321.9H602.5z"/>
<path class="st0" d="M771.7,321.9c80.6,0,120.8,40.3,120.8,120.8c0,53.7-15.2,87.7-45.7,102.1l45.7,126.2H804l-32.2-107.4H718v107.4
	h-80.6V321.9H771.7z M718,483.1h53.7c26.9,0,40.3-13.4,40.3-40.3s-13.4-40.3-40.3-40.3H718V483.1z"/>
<path class="st0" d="M1174.6,456.2v214.8H1094v-80.6h-94v80.6h-80.6V456.2c0-89.5,43-134.3,128.9-134.3
	C1132.5,321.9,1174.6,366.7,1174.6,456.2z M1048.3,402.5c-32.2,0-48.3,17.9-48.3,53.7v53.7h94v-53.7
	C1094,420.4,1078.8,402.5,1048.3,402.5z"/>
<path class="st0" d="M1282,321.9v349.1h-80.6V321.9H1282z"/>
<path class="st0" d="M1483.4,590.5h13.4V456.2h80.6v214.8h-94c-116.4,0-174.6-58.2-174.6-174.6c0-116.4,58.2-174.6,174.6-174.6h32.2
	l8.1,80.6h-40.3c-62.7,0-94,31.3-94,94C1389.4,559.2,1420.7,590.5,1483.4,590.5z"/>
<path class="st0" d="M1913.1,496.5c0,116.4-51,174.6-153.1,174.6c-103.8,0-155.8-58.2-155.8-174.6c0-116.4,51.9-174.6,155.8-174.6
	C1862.1,321.9,1913.1,380.1,1913.1,496.5z M1760,402.5c-50.1,0-75.2,31.3-75.2,94c0,62.7,25.1,94,75.2,94c48.3,0,72.5-31.3,72.5-94
	C1832.5,433.8,1808.3,402.5,1760,402.5z"/>
<g>
</g>
<g>
</g>
<g>
</g>
<g>
</g>
<g>
</g>
</svg>
